<svg xmlns="http://www.w3.org/2000/svg" version="1.1" xmlns:xlink="http://www.w3.org/1999/xlink" viewBox="0 0 14.95007638693748 5.669546409778091"><g transform="matrix(1,0,0,1,4.366167069342364,1.8404607048890456)"><rect width="14.95007638693748" height="14.95007638693748" x="-4.366167069342364" y="-6.480725693468741" fill="#ffffff"></rect><g clip-path="url(#SvgjsClipPath1002)"><g clip-path="url(#SvgjsClipPath100018f69a08-79c5-4174-8f5e-6097dedcff6c)"><path d=" M -0.8987290399717587 0.292369901954491 C -0.8909127749360848 0.38243194087300236 -0.8769788242515939 0.4437627894484435 -0.8547992972578276 0.49619009552354654 C -0.8023859904633852 0.6200790629457011 -0.7037563917803964 0.6941912547645526 -0.5299599888021023 0.9797205831244447 C -0.3886279176764549 1.2118613214705207 -0.3261771266481417 1.1975727223426191 -0.5330958276701461 1.322768289293125 C -0.7019271524407045 1.3946685947675515 -0.7518252551430704 1.361298976098833 -0.7544197884922252 1.5300649708929739 C -0.7497813601665775 1.6003460262376223 -0.7027437771459244 1.6765114458867396 -0.6981053488202762 1.746769169096953 C -0.6915210204827629 1.8466867016007456 -0.8256574613487024 1.857582808381819 -0.828765301655424 1.9049190427232388 C -0.833431728542394 1.976124050591507 -0.644847418759293 1.9598662193173046 -0.7623573806269608 2.059340441266835 C -0.8170479037422438 2.1056453952662344 -0.7929551417248204 2.261443389741487 -0.7934451165479519 2.3876935691684484 C -0.7945183947319547 2.6710716747334486 -1.0444988830669142 2.54013640271197 -1.3086186448693913 2.5446815024998783 C -1.394673778567626 2.546168537201193 -1.47501720575621 2.551195834434088 -1.5496489264351432 2.559763394198564 C -1.9764823273593624 2.6079115868183163 -2.355685509048283 2.7949513093018297 -2.672764549590978 3.079995329265479 C -2.6080365422418232 2.74498321019616 -2.3551395371025077 2.4628930384519636 -2.0995406707956366 2.174554521106114 C -2.059647387338934 2.129560833061953 -2.0263477650735187 2.079298749062404 -1.983677957619069 2.038626172315577 C -1.1586536840028505 1.2523799061300758 -0.8927746792639857 -0.6447372790598517 -2.2532947702943966 -1.0364604840865117 C -1.5956692283944371 -0.9791147640725428 -0.9750064538661634 -0.5859403002840352 -0.8986963749835506 0.29236990195448875 Z M -2.4451829103134717 -0.2996130129264678 L -2.2567199276294323 0.02679421496327916 L -1.4691017319391615 0.02679421496327916 L -1.4691017319391615 -0.0935995987205347 L -2.187208832721133 -0.0935995987205347 L -2.375667148978286 -0.42002082589094236 L -3.0218506121513964 -0.42002082589094236 C -3.0457747852788066 -0.47473680397442886 -3.0998298322114435 -0.510092043428132 -3.159547536732094 -0.510082864809455 C -3.1993986868936632 -0.5100828648094561 -3.2376176376959 -0.4942520570475003 -3.2657966562132286 -0.46607303853017 C -3.2939756747305577 -0.43789402001284194 -3.309806482492514 -0.3996750692106046 -3.309806482492514 -0.35982391904903643 C -3.309806482492514 -0.31997276888746495 -3.2939756747305573 -0.2817538180852287 -3.2657966562132286 -0.2535747995678995 C -3.2376176376959 -0.22539578105057034 -3.199398686893663 -0.20956497328861334 -3.1595475367320938 -0.20956497328861334 C -3.0998298322114435 -0.20955579466993757 -3.0457747852788066 -0.2449110341236419 -3.0218506121513964 -0.2996270122071272 Z M -2.922227064541483 0.24761420168156545 L -3.329139489085229 0.24761420168156545 C -3.353071785531799 0.19290084126946883 -3.407127184903802 0.15754776746805677 -3.466845746519701 0.15755216276305273 C -3.50669689668127 0.15755216276305384 -3.5449158474835065 0.17338297052500962 -3.5730948660008353 0.2015619890423399 C -3.601273884518164 0.22974100755966798 -3.6171046922801207 0.26795995836190434 -3.6171046922801207 0.3078111085234736 C -3.6171046922801207 0.34766225868504286 -3.601273884518164 0.385881209487279 -3.5730948660008353 0.4140602280046082 C -3.5449158474835065 0.44223924652193736 -3.5066968966812695 0.45807005428389425 -3.4668457465197005 0.45807005428389425 C -3.407124654905932 0.4580829425083035 -3.3530650187429125 0.4227270977795239 -3.329139489085229 0.36800801536538175 L -2.9222270645414827 0.36800801536538175 L -2.9222270645414827 0.24761420168156656 Z M -2.8108581204570675 1.3041912438561014 L -1.9126596068262791 1.3041912438561014 L -1.9126596068262791 1.1837554323303046 L -2.880359882511592 1.1837554323303046 L -3.0090646024810996 1.4066659782939528 C -3.0114304809127934 1.4065539840486667 -3.013819691478922 1.406479321218474 -3.0162042356181633 1.406479321218474 C -3.056055385779732 1.406479321218474 -3.094274336581969 1.4223101289804307 -3.1224533550992977 1.4504891474977604 C -3.1506323736166264 1.478668166015089 -3.166463181378583 1.5168871168173257 -3.166463181378583 1.5567382669788947 C -3.166463181378583 1.5965894171404638 -3.1506323736166264 1.6348083679427008 -3.1224533550992977 1.662987386460029 C -3.094274336581969 1.6911664049773578 -3.056055385779732 1.706997212739315 -3.016204235618163 1.706997212739315 C -2.9763530854565943 1.706997212739315 -2.9381341346543572 1.6911664049773578 -2.9099551161370285 1.6629873864600286 C -2.8817760976196998 1.6348083679427008 -2.865945289857743 1.5965894171404638 -2.865945289857743 1.5567382669788947 C -2.8658935744671026 1.52146612753757 -2.878303777144468 1.4873095609197606 -2.9009854893519953 1.4602972225058979 L -2.8108441211764066 1.3041725781485538 Z M -2.8108581204570675 -0.6885503611016061 L -2.9009994886326584 -0.8446890047396086 C -2.8783149507684547 -0.8716997120934203 -2.86590436010783 -0.9058573465564836 -2.865959289138404 -0.9411300492126076 C -2.865959289138404 -0.9809811993741779 -2.8817900969003607 -1.019200150176414 -2.9099691154176894 -1.0473791686937433 C -2.9381481339350186 -1.0755581872110724 -2.976367084737255 -1.0913889949730295 -3.0162182348988242 -1.0913889949730295 C -3.0560693850603933 -1.0913889949730295 -3.09428833586263 -1.0755581872110724 -3.1224673543799586 -1.0473791686937433 C -3.1506463728972873 -1.019200150176414 -3.166477180659244 -0.9809811993741779 -3.166477180659244 -0.9411300492126087 C -3.166477180659244 -0.9012788990510383 -3.1506463728972873 -0.8630599482488008 -3.1224673543799586 -0.8348809297314728 C -3.09428833586263 -0.8067019112141425 -3.056069385060393 -0.7908711034521867 -3.016218234898824 -0.7908711034521867 C -3.013833690759583 -0.7908711034521878 -3.0114444801934543 -0.7909364334286042 -3.0090786017617606 -0.7910437612470058 L -2.880373881792253 -0.5681332152833563 L -1.9126596068262791 -0.5681332152833563 L -1.9126596068262791 -0.6885503611016061 Z M -1.5887535837479474 0.3649375064737552 L -1.5887535837479474 0.24454369278994004 L -2.4905172475203807 0.24454369278994004 L -2.577107464834988 0.09458339835028684 C -2.5544244735860824 0.06756782980090992 -2.542012800484456 0.033408459449710826 -2.542062598913847 -0.0018669789764873546 C -2.542062598913847 -0.041718129138057725 -2.5578934066758032 -0.07993707994029497 -2.586072425193132 -0.10811609845762304 C -2.614251443710461 -0.13629511697495222 -2.652470394512698 -0.15212592473690922 -2.6923215446742668 -0.15212592473690922 C -2.732172694835836 -0.15212592473690922 -2.7703916456380724 -0.13629511697495222 -2.7985706641554016 -0.10811609845762304 C -2.8267496826727303 -0.07993707994029497 -2.8425804904346865 -0.041718129138057725 -2.8425804904346865 -0.0018669789764884648 C -2.8425804904346865 0.037984171185081905 -2.8267496826727303 0.07620312198731938 -2.798570664155401 0.10438214050464745 C -2.7703916456380724 0.13256115902197774 -2.7321726948358354 0.14839196678393352 -2.6923215446742668 0.14839196678393352 C -2.6899230012543645 0.1483919667839324 -2.687547789968897 0.1483126375268542 -2.6851632458296555 0.14820530970845391 L -2.593010647665781 0.30782977423102165 L -2.6851725786834293 0.46745890518047606 C -2.6875571228226707 0.46735157736207666 -2.6899323341081383 0.467276914531884 -2.6923308775280406 0.467276914531884 C -2.7321820276896096 0.467276914531884 -2.7704009784918466 0.4831077222938409 -2.7985799970091754 0.5112867408111701 C -2.826759015526504 0.5394657593284993 -2.8425898232884608 0.5776847101307354 -2.8425898232884608 0.6175358602923047 C -2.8425898232884608 0.6573870104538739 -2.826759015526504 0.6956059612561103 -2.7985799970091754 0.7237849797734384 C -2.7704009784918466 0.7519639982907687 -2.7321820276896096 0.7677948060527244 -2.6923308775280406 0.7677948060527244 C -2.6524797273664715 0.7677948060527244 -2.614260776564235 0.7519639982907687 -2.586081758046906 0.7237849797734384 C -2.5579027395295775 0.6956059612561103 -2.542071931767621 0.6573870104538739 -2.542071931767621 0.6175358602923047 C -2.5420243337577073 0.5822636285974965 -2.554435874008571 0.548107929214736 -2.5771167976887703 0.5210948158192967 L -2.490526580374155 0.37112985495276396 L -1.5887535837479474 0.37112985495276396 L -1.5887535837479474 0.36496083860819084 Z M -2.4451829103134717 0.8935596770834404 L -3.0218506121513964 0.8935596770834404 C -3.0457747852788066 0.8388436989999539 -3.0998298322114435 0.8034884595462497 -3.159547536732094 0.8034976381649266 C -3.1993986868936632 0.8034976381649279 -3.2376176376959 0.8193284459268848 -3.2657966562132286 0.847507464444214 C -3.2939756747305577 0.8756864829615421 -3.309806482492514 0.9139054337637793 -3.309806482492514 0.9537565839253488 C -3.309806482492514 0.9936077340869169 -3.2939756747305573 1.031826684889154 -3.2657966562132286 1.0600057034064823 C -3.2376176376959 1.0881847219238123 -3.199398686893663 1.104015529685768 -3.1595475367320938 1.104015529685768 C -3.0998298322114435 1.1040247083044465 -3.0457747852788066 1.0686694688507434 -3.0218506121513964 1.013953490767257 L -2.375667148978286 1.013953490767257 L -2.187208832721133 0.6875415964506222 L -1.4691017319391615 0.6875415964506222 L -1.4691017319391615 0.5671244506323723 L -2.2567292604832057 0.5671244506323723 Z" fill="#4e888f" transform="matrix(1,0,0,1,0,0)" fill-rule="evenodd"></path></g></g><g><path d=" M 1.341 0.020999999999999908 L 1.341 0.050999999999999934 Q 1.293 0.05249999999999999 1.2690000000000001 0.062249999999999917 Q 1.245 0.07199999999999984 1.23675 0.09824999999999995 Q 1.2285 0.12449999999999994 1.2285 0.17999999999999994 L 1.2285 0.9239999999999999 Q 1.2285 0.978 1.23675 1.005 Q 1.245 1.032 1.2690000000000001 1.041 Q 1.293 1.05 1.341 1.053 L 1.341 1.083 Q 1.299 1.08 1.23525 1.07925 Q 1.1715 1.0785 1.1055 1.0785 Q 1.0335 1.0785 0.9705 1.07925 Q 0.9075 1.08 0.8685 1.083 L 0.8685 1.053 Q 0.9195 1.05 0.94575 1.041 Q 0.972 1.032 0.981 1.005 Q 0.99 0.978 0.99 0.9239999999999999 L 0.99 0.11249999999999993 L 1.0005 0.11249999999999993 L 0.6285000000000001 1.0845 L 0.6045 1.0845 L 0.1995 0.11849999999999994 L 0.1995 0.837 Q 0.1995 0.9195 0.2085 0.96375 Q 0.2175 1.008 0.24825 1.02675 Q 0.279 1.0454999999999999 0.34500000000000003 1.053 L 0.34500000000000003 1.083 Q 0.3165 1.08 0.27 1.07925 Q 0.2235 1.0785 0.183 1.0785 Q 0.1485 1.0785 0.1125 1.07925 Q 0.0765 1.08 0.0525 1.083 L 0.0525 1.053 Q 0.1005 1.0454999999999999 0.1245 1.0274999999999999 Q 0.1485 1.0095 0.15675 0.9682499999999999 Q 0.165 0.9269999999999999 0.165 0.855 L 0.165 0.17999999999999994 Q 0.165 0.12449999999999994 0.15675 0.09824999999999995 Q 0.1485 0.07199999999999984 0.12375 0.062249999999999917 Q 0.099 0.05249999999999999 0.0525 0.050999999999999934 L 0.0525 0.020999999999999908 Q 0.0765 0.022499999999999964 0.1125 0.02400000000000002 Q 0.1485 0.025499999999999856 0.183 0.025499999999999856 Q 0.2475 0.025499999999999856 0.30975 0.02400000000000002 Q 0.372 0.022499999999999964 0.42 0.020999999999999908 L 0.735 0.7815 L 0.6975 0.816 L 0.999 0.025499999999999856 Q 1.0245 0.025499999999999856 1.0515 0.025499999999999856 Q 1.0785 0.025499999999999856 1.1055 0.025499999999999856 Q 1.1715 0.025499999999999856 1.23525 0.02400000000000002 Q 1.299 0.022499999999999964 1.341 0.020999999999999908 M 1.9740095214843754 0 Q 2.133009521484375 0 2.2522595214843752 0.0645 Q 2.3715095214843753 0.1289999999999999 2.437509521484375 0.24974999999999992 Q 2.503509521484375 0.37049999999999994 2.503509521484375 0.5429999999999999 Q 2.503509521484375 0.711 2.436009521484375 0.837 Q 2.368509521484375 0.963 2.247759521484375 1.0334999999999999 Q 2.1270095214843754 1.1039999999999999 1.9725095214843753 1.1039999999999999 Q 1.8135095214843753 1.1039999999999999 1.6942595214843752 1.0394999999999999 Q 1.5750095214843753 0.975 1.5090095214843753 0.8534999999999999 Q 1.4430095214843752 0.732 1.4430095214843752 0.5609999999999999 Q 1.4430095214843752 0.3929999999999999 1.5112595214843751 0.2669999999999999 Q 1.5795095214843753 0.1409999999999999 1.6987595214843751 0.07050000000000001 Q 1.8180095214843752 0 1.9740095214843754 0 M 1.9680095214843751 0.026999999999999913 Q 1.8840095214843753 0.026999999999999913 1.8217595214843754 0.09449999999999992 Q 1.7595095214843752 0.16199999999999992 1.7257595214843753 0.28049999999999997 Q 1.6920095214843753 0.3989999999999999 1.6920095214843753 0.5549999999999999 Q 1.6920095214843753 0.714 1.7302595214843752 0.83175 Q 1.7685095214843751 0.9495 1.8337595214843752 1.01325 Q 1.8990095214843752 1.077 1.978509521484375 1.077 Q 2.062509521484375 1.077 2.1247595214843753 1.0095 Q 2.1870095214843754 0.942 2.2207595214843754 0.82275 Q 2.2545095214843753 0.7035 2.2545095214843753 0.5489999999999999 Q 2.2545095214843753 0.38849999999999996 2.216259521484375 0.27149999999999996 Q 2.178009521484375 0.15449999999999997 2.1127595214843753 0.09075 Q 2.0475095214843755 0.026999999999999913 1.9680095214843751 0.026999999999999913 M 3.16355419921875 0 Q 3.26255419921875 0 3.32630419921875 0.029249999999999998 Q 3.39005419921875 0.058499999999999996 3.43955419921875 0.09749999999999992 Q 3.46955419921875 0.12 3.48530419921875 0.1027499999999999 Q 3.50105419921875 0.08549999999999991 3.50705419921875 0.020999999999999908 L 3.54155419921875 0.020999999999999908 Q 3.53855419921875 0.0794999999999999 3.53705419921875 0.16274999999999995 Q 3.5355541992187502 0.246 3.5355541992187502 0.3839999999999999 L 3.50105419921875 0.3839999999999999 Q 3.49355419921875 0.31499999999999995 3.48155419921875 0.26625 Q 3.46955419921875 0.21749999999999992 3.44855419921875 0.17999999999999994 Q 3.42755419921875 0.14249999999999996 3.38855419921875 0.11249999999999993 Q 3.35105419921875 0.07499999999999996 3.3015541992187503 0.05699999999999994 Q 3.25205419921875 0.038999999999999924 3.19805419921875 0.038999999999999924 Q 3.11705419921875 0.038999999999999924 3.06005419921875 0.08174999999999999 Q 3.00305419921875 0.12449999999999994 2.96780419921875 0.19799999999999995 Q 2.93255419921875 0.27149999999999996 2.91605419921875 0.3637499999999999 Q 2.89955419921875 0.45599999999999996 2.89955419921875 0.5549999999999999 Q 2.89955419921875 0.6555 2.91680419921875 0.7477499999999999 Q 2.93405419921875 0.84 2.97080419921875 0.9119999999999999 Q 3.00755419921875 0.984 3.06605419921875 1.026 Q 3.1245541992187498 1.068 3.20405419921875 1.068 Q 3.25355419921875 1.068 3.30380419921875 1.04925 Q 3.35405419921875 1.0305 3.39005419921875 0.9944999999999999 Q 3.44855419921875 0.9495 3.46955419921875 0.8827499999999999 Q 3.49055419921875 0.816 3.50105419921875 0.705 L 3.5355541992187502 0.705 Q 3.5355541992187502 0.8474999999999999 3.53705419921875 0.9352499999999999 Q 3.53855419921875 1.023 3.54155419921875 1.083 L 3.50705419921875 1.083 Q 3.50105419921875 1.0185 3.48680419921875 1.002 Q 3.47255419921875 0.9854999999999999 3.43955419921875 1.0065 Q 3.38405419921875 1.0454999999999999 3.32180419921875 1.0747499999999999 Q 3.25955419921875 1.1039999999999999 3.16205419921875 1.1039999999999999 Q 3.00305419921875 1.1039999999999999 2.88380419921875 1.0394999999999999 Q 2.76455419921875 0.975 2.69855419921875 0.8534999999999999 Q 2.63255419921875 0.732 2.63255419921875 0.5609999999999999 Q 2.63255419921875 0.3929999999999999 2.70080419921875 0.2669999999999999 Q 2.76905419921875 0.1409999999999999 2.88830419921875 0.07050000000000001 Q 3.00755419921875 0 3.16355419921875 0 M 4.659079833984375 0.020999999999999908 L 4.659079833984375 0.04949999999999988 Q 4.611079833984375 0.05999999999999983 4.556329833984375 0.09149999999999991 Q 4.501579833984375 0.123 4.441579833984375 0.1934999999999999 L 4.159579833984375 0.5295 L 4.246579833984375 0.4049999999999999 L 4.603579833984375 0.9615 Q 4.624579833984375 0.996 4.648579833984375 1.017 Q 4.672579833984375 1.038 4.711579833984375 1.053 L 4.711579833984375 1.083 Q 4.659079833984375 1.08 4.594579833984375 1.07925 Q 4.530079833984375 1.0785 4.477579833984375 1.0785 Q 4.446079833984375 1.0785 4.401079833984375 1.07925 Q 4.356079833984375 1.08 4.287079833984375 1.083 L 4.287079833984375 1.053 Q 4.348579833984375 1.05 4.361329833984375 1.03575 Q 4.374079833984375 1.0215 4.350079833984375 0.9854999999999999 L 4.132579833984375 0.633 Q 4.111579833984375 0.5985 4.095079833984375 0.5812499999999999 Q 4.078579833984375 0.564 4.062079833984375 0.5572499999999999 Q 4.045579833984375 0.5505 4.018579833984375 0.5489999999999999 L 4.018579833984375 0.5175 Q 4.084579833984375 0.5159999999999999 4.136329833984375 0.48149999999999993 Q 4.188079833984375 0.44699999999999995 4.249579833984375 0.37649999999999995 L 4.338079833984375 0.2699999999999999 Q 4.395079833984375 0.2024999999999999 4.404829833984375 0.15374999999999994 Q 4.414579833984375 0.10499999999999998 4.385329833984375 0.07799999999999985 Q 4.356079833984375 0.050999999999999934 4.296079833984375 0.04949999999999988 L 4.296079833984375 0.020999999999999908 Q 4.351579833984375 0.022499999999999964 4.401829833984375 0.02400000000000002 Q 4.452079833984375 0.025499999999999856 4.518079833984375 0.025499999999999856 Q 4.605079833984375 0.025499999999999856 4.659079833984375 0.020999999999999908 M 4.140079833984375 0.020999999999999908 L 4.140079833984375 0.050999999999999934 Q 4.092079833984375 0.05249999999999999 4.067329833984375 0.062249999999999917 Q 4.042579833984375 0.07199999999999984 4.035079833984375 0.09824999999999995 Q 4.027579833984375 0.12449999999999994 4.027579833984375 0.17999999999999994 L 4.027579833984375 0.9239999999999999 Q 4.027579833984375 0.978 4.035829833984375 1.005 Q 4.044079833984375 1.032 4.068079833984375 1.041 Q 4.092079833984375 1.05 4.140079833984375 1.053 L 4.140079833984375 1.083 Q 4.099579833984375 1.08 4.038079833984375 1.07925 Q 3.976579833984375 1.0785 3.9135798339843753 1.0785 Q 3.841579833984375 1.0785 3.777829833984375 1.07925 Q 3.714079833984375 1.08 3.676579833984375 1.083 L 3.676579833984375 1.053 Q 3.724579833984375 1.05 3.748579833984375 1.041 Q 3.772579833984375 1.032 3.780829833984375 1.005 Q 3.789079833984375 0.978 3.789079833984375 0.9239999999999999 L 3.789079833984375 0.17999999999999994 Q 3.789079833984375 0.12449999999999994 3.780829833984375 0.09824999999999995 Q 3.772579833984375 0.07199999999999984 3.747829833984375 0.062249999999999917 Q 3.723079833984375 0.05249999999999999 3.676579833984375 0.050999999999999934 L 3.676579833984375 0.020999999999999908 Q 3.714079833984375 0.022499999999999964 3.777829833984375 0.02400000000000002 Q 3.841579833984375 0.025499999999999856 3.9135798339843753 0.025499999999999856 Q 3.976579833984375 0.025499999999999856 4.038079833984375 0.02400000000000002 Q 4.099579833984375 0.022499999999999964 4.140079833984375 0.020999999999999908 M 5.524503662109375 0.018000000000000016 L 5.889003662109375 0.957 Q 5.910003662109375 1.011 5.936253662109375 1.03125 Q 5.962503662109375 1.0514999999999999 5.983503662109375 1.053 L 5.983503662109375 1.083 Q 5.938503662109375 1.08 5.877753662109375 1.07925 Q 5.817003662109375 1.0785 5.755503662109375 1.0785 Q 5.686503662109375 1.0785 5.625003662109375 1.07925 Q 5.563503662109375 1.08 5.527503662109375 1.083 L 5.527503662109375 1.053 Q 5.604003662109375 1.05 5.624253662109375 1.02675 Q 5.644503662109375 1.0035 5.614503662109375 0.9269999999999999 L 5.3595036621093755 0.22949999999999993 L 5.386503662109375 0.1904999999999999 L 5.158503662109375 0.7845 Q 5.116503662109375 0.8955 5.117253662109375 0.9524999999999999 Q 5.118003662109375 1.0095 5.154003662109375 1.02975 Q 5.190003662109375 1.05 5.250003662109375 1.053 L 5.250003662109375 1.083 Q 5.200503662109375 1.08 5.155503662109375 1.07925 Q 5.110503662109375 1.0785 5.064003662109375 1.0785 Q 5.031003662109375 1.0785 5.001753662109375 1.07925 Q 4.972503662109375 1.08 4.950003662109375 1.083 L 4.950003662109375 1.053 Q 4.981503662109375 1.047 5.014503662109375 1.0125 Q 5.047503662109375 0.978 5.079003662109375 0.8955 L 5.421003662109375 0.018000000000000016 Q 5.445003662109375 0.01949999999999985 5.472753662109375 0.01949999999999985 Q 5.5005036621093755 0.01949999999999985 5.524503662109375 0.018000000000000016 M 5.629503662109375 0.651 L 5.629503662109375 0.6809999999999999 L 5.182503662109375 0.6809999999999999 L 5.197503662109375 0.651 L 5.629503662109375 0.651 M 6.457462646484375 0.020999999999999908 L 6.457462646484375 0.050999999999999934 Q 6.409462646484375 0.05249999999999999 6.384712646484375 0.062249999999999917 Q 6.359962646484375 0.07199999999999984 6.352462646484375 0.09824999999999995 Q 6.344962646484375 0.12449999999999994 6.344962646484375 0.17999999999999994 L 6.344962646484375 0.9239999999999999 Q 6.344962646484375 0.978 6.353212646484375 1.005 Q 6.361462646484375 1.032 6.385462646484375 1.041 Q 6.409462646484375 1.05 6.457462646484375 1.053 L 6.457462646484375 1.083 Q 6.416962646484375 1.08 6.355462646484375 1.07925 Q 6.293962646484375 1.0785 6.230962646484375 1.0785 Q 6.157462646484375 1.0785 6.095212646484375 1.07925 Q 6.032962646484375 1.08 5.993962646484375 1.083 L 5.993962646484375 1.053 Q 6.041962646484375 1.05 6.065962646484375 1.041 Q 6.089962646484375 1.032 6.098212646484375 1.005 Q 6.106462646484375 0.978 6.106462646484375 0.9239999999999999 L 6.106462646484375 0.17999999999999994 Q 6.106462646484375 0.12449999999999994 6.098212646484375 0.09824999999999995 Q 6.089962646484375 0.07199999999999984 6.065212646484375 0.062249999999999917 Q 6.040462646484375 0.05249999999999999 5.993962646484375 0.050999999999999934 L 5.993962646484375 0.020999999999999908 Q 6.032962646484375 0.022499999999999964 6.095212646484375 0.02400000000000002 Q 6.157462646484375 0.025499999999999856 6.230962646484375 0.025499999999999856 Q 6.293962646484375 0.025499999999999856 6.355462646484375 0.02400000000000002 Q 6.416962646484375 0.022499999999999964 6.457462646484375 0.020999999999999908" fill="#404040" fill-rule="nonzero"></path></g><g><path d=" M 0.441 1.4576250000000002 L 0.441 1.472625 Q 0.42675 1.475625 0.41250000000000003 1.491 Q 0.39825 1.506375 0.381 1.5393750000000002 L 0.2295 1.839375 L 0.21675 1.839375 L 0.04125 1.5153750000000001 Q 0.02625 1.487625 0.016125 1.4805000000000001 Q 0.006 1.473375 -0.0022500000000000003 1.473375 L -0.0022500000000000003 1.4576250000000002 Q 0.012750000000000001 1.4583750000000002 0.028875 1.4591250000000002 Q 0.045 1.459875 0.06375 1.459875 Q 0.0885 1.459875 0.116625 1.4595000000000002 Q 0.14475 1.4591250000000002 0.16875 1.4576250000000002 L 0.16875 1.473375 Q 0.15 1.473375 0.13575 1.477875 Q 0.1215 1.4823750000000002 0.117 1.494375 Q 0.1125 1.506375 0.12375 1.5281250000000002 L 0.2505 1.771125 L 0.2445 1.775625 L 0.34425 1.576875 Q 0.36525 1.535625 0.364875 1.513125 Q 0.3645 1.490625 0.34725 1.4820000000000002 Q 0.33 1.473375 0.2985 1.472625 L 0.2985 1.4576250000000002 Q 0.32025 1.4583750000000002 0.34275 1.4591250000000002 Q 0.36525 1.459875 0.38475 1.459875 Q 0.40425 1.459875 0.417 1.4591250000000002 Q 0.42975 1.4583750000000002 0.441 1.4576250000000002 M 0.26325 1.760625 L 0.26325 1.9091250000000002 Q 0.26325 1.936125 0.26775 1.9496250000000002 Q 0.27225 1.963125 0.285375 1.9676250000000002 Q 0.2985 1.9721250000000001 0.324 1.9736250000000002 L 0.324 1.988625 Q 0.30675 1.987125 0.280875 1.98675 Q 0.255 1.986375 0.22875 1.986375 Q 0.1995 1.986375 0.17400000000000002 1.98675 Q 0.1485 1.987125 0.13275 1.988625 L 0.13275 1.9736250000000002 Q 0.15825 1.9721250000000001 0.171375 1.9676250000000002 Q 0.1845 1.963125 0.189 1.9496250000000002 Q 0.1935 1.936125 0.1935 1.9091250000000002 L 0.1935 1.7553750000000001 L 0.234 1.8018750000000001 L 0.26325 1.760625 M 0.704244873046875 1.4471250000000002 Q 0.775494873046875 1.4471250000000002 0.829119873046875 1.479375 Q 0.882744873046875 1.511625 0.912369873046875 1.572 Q 0.941994873046875 1.6323750000000001 0.941994873046875 1.718625 Q 0.941994873046875 1.8026250000000001 0.911619873046875 1.865625 Q 0.8812448730468749 1.928625 0.827244873046875 1.963875 Q 0.7732448730468751 1.999125 0.7034948730468751 1.999125 Q 0.632244873046875 1.999125 0.578619873046875 1.9668750000000002 Q 0.524994873046875 1.934625 0.495369873046875 1.8738750000000002 Q 0.465744873046875 1.813125 0.465744873046875 1.7276250000000002 Q 0.465744873046875 1.6436250000000001 0.496494873046875 1.580625 Q 0.5272448730468751 1.517625 0.580869873046875 1.4823750000000002 Q 0.634494873046875 1.4471250000000002 0.704244873046875 1.4471250000000002 M 0.701244873046875 1.460625 Q 0.652494873046875 1.460625 0.616494873046875 1.494375 Q 0.580494873046875 1.5281250000000002 0.560619873046875 1.5873750000000002 Q 0.540744873046875 1.646625 0.540744873046875 1.724625 Q 0.540744873046875 1.804125 0.562869873046875 1.863 Q 0.584994873046875 1.921875 0.622869873046875 1.95375 Q 0.660744873046875 1.9856250000000002 0.706494873046875 1.9856250000000002 Q 0.755244873046875 1.9856250000000002 0.7912448730468751 1.951875 Q 0.827244873046875 1.918125 0.847119873046875 1.8585 Q 0.8669948730468751 1.798875 0.8669948730468751 1.721625 Q 0.8669948730468751 1.641375 0.844869873046875 1.582875 Q 0.8227448730468749 1.524375 0.7852448730468751 1.4925000000000002 Q 0.747744873046875 1.460625 0.701244873046875 1.460625 M 1.4685296630859375 1.4576250000000002 L 1.4685296630859375 1.472625 Q 1.4430296630859374 1.473375 1.4299046630859376 1.4801250000000001 Q 1.4167796630859375 1.486875 1.4122796630859376 1.501875 Q 1.4077796630859374 1.5168750000000002 1.4077796630859374 1.5446250000000001 L 1.4077796630859374 1.770375 Q 1.4077796630859374 1.822875 1.4010296630859376 1.8618750000000002 Q 1.3942796630859375 1.900875 1.3770296630859375 1.929375 Q 1.3582796630859375 1.9608750000000001 1.3222796630859375 1.98 Q 1.2862796630859374 1.999125 1.2397796630859375 1.999125 Q 1.2037796630859374 1.999125 1.1711546630859375 1.9905000000000002 Q 1.1385296630859374 1.981875 1.1137796630859376 1.958625 Q 1.0920296630859374 1.9376250000000002 1.0796546630859376 1.9143750000000002 Q 1.0672796630859376 1.8911250000000002 1.0627796630859374 1.857375 Q 1.0582796630859375 1.823625 1.0582796630859375 1.7726250000000001 L 1.0582796630859375 1.537125 Q 1.0582796630859375 1.5093750000000001 1.0537796630859375 1.49625 Q 1.0492796630859376 1.483125 1.0361546630859375 1.47825 Q 1.0230296630859375 1.473375 0.9975296630859375 1.472625 L 0.9975296630859375 1.4576250000000002 Q 1.0132796630859375 1.4583750000000002 1.0387796630859376 1.4591250000000002 Q 1.0642796630859375 1.459875 1.0935296630859375 1.459875 Q 1.1197796630859376 1.459875 1.1456546630859374 1.4591250000000002 Q 1.1715296630859375 1.4583750000000002 1.1887796630859375 1.4576250000000002 L 1.1887796630859375 1.472625 Q 1.1632796630859374 1.473375 1.1501546630859374 1.47825 Q 1.1370296630859376 1.483125 1.1325296630859376 1.49625 Q 1.1280296630859374 1.5093750000000001 1.1280296630859374 1.537125 L 1.1280296630859374 1.7853750000000002 Q 1.1280296630859374 1.823625 1.1317796630859376 1.85775 Q 1.1355296630859375 1.8918750000000002 1.1471546630859375 1.91775 Q 1.1587796630859375 1.9436250000000002 1.1827796630859375 1.95825 Q 1.2067796630859375 1.9728750000000002 1.2465296630859375 1.9728750000000002 Q 1.3035296630859374 1.9728750000000002 1.3346546630859375 1.94775 Q 1.3657796630859376 1.922625 1.3781546630859376 1.8783750000000001 Q 1.3905296630859376 1.834125 1.3905296630859376 1.7786250000000001 L 1.3905296630859376 1.5446250000000001 Q 1.3905296630859376 1.5168750000000002 1.3841546630859374 1.501875 Q 1.3777796630859376 1.486875 1.3627796630859375 1.4801250000000001 Q 1.3477796630859376 1.473375 1.3222796630859375 1.472625 L 1.3222796630859375 1.4576250000000002 Q 1.3357796630859375 1.4583750000000002 1.3579046630859375 1.4591250000000002 Q 1.3800296630859374 1.459875 1.3987796630859375 1.459875 Q 1.4182796630859376 1.459875 1.4374046630859376 1.4591250000000002 Q 1.4565296630859375 1.4583750000000002 1.4685296630859375 1.4576250000000002 M 1.5202847900390626 1.4576250000000002 Q 1.5360347900390625 1.4583750000000002 1.5615347900390626 1.4591250000000002 Q 1.5870347900390624 1.459875 1.6117847900390625 1.459875 Q 1.6470347900390625 1.459875 1.6792847900390626 1.4591250000000002 Q 1.7115347900390625 1.4583750000000002 1.7250347900390626 1.4583750000000002 Q 1.7857847900390624 1.4583750000000002 1.8259097900390624 1.475625 Q 1.8660347900390626 1.4928750000000002 1.8859097900390625 1.5225 Q 1.9057847900390625 1.5521250000000002 1.9057847900390625 1.588875 Q 1.9057847900390625 1.611375 1.8967847900390624 1.636875 Q 1.8877847900390625 1.6623750000000002 1.8656597900390626 1.6848750000000001 Q 1.8435347900390626 1.707375 1.8052847900390625 1.722 Q 1.7670347900390624 1.736625 1.7085347900390624 1.736625 L 1.6365347900390625 1.736625 L 1.6365347900390625 1.721625 L 1.7010347900390625 1.721625 Q 1.7542847900390626 1.721625 1.7824097900390625 1.7047500000000002 Q 1.8105347900390625 1.687875 1.8206597900390626 1.65975 Q 1.8307847900390626 1.631625 1.8307847900390626 1.5971250000000001 Q 1.8307847900390626 1.537875 1.8026597900390624 1.5052500000000002 Q 1.7745347900390624 1.472625 1.7062847900390625 1.472625 Q 1.6717847900390626 1.472625 1.6612847900390626 1.4853750000000001 Q 1.6507847900390624 1.4981250000000002 1.6507847900390624 1.537125 L 1.6507847900390624 1.9091250000000002 Q 1.6507847900390624 1.936125 1.6552847900390626 1.9496250000000002 Q 1.6597847900390625 1.963125 1.6729097900390626 1.9676250000000002 Q 1.6860347900390624 1.9721250000000001 1.7115347900390625 1.9736250000000002 L 1.7115347900390625 1.988625 Q 1.6942847900390625 1.987125 1.6684097900390624 1.98675 Q 1.6425347900390626 1.986375 1.6162847900390624 1.986375 Q 1.5870347900390624 1.986375 1.5615347900390626 1.98675 Q 1.5360347900390625 1.987125 1.5202847900390626 1.988625 L 1.5202847900390626 1.9736250000000002 Q 1.5457847900390624 1.9721250000000001 1.5589097900390625 1.9676250000000002 Q 1.5720347900390625 1.963125 1.5765347900390625 1.9496250000000002 Q 1.5810347900390624 1.936125 1.5810347900390624 1.9091250000000002 L 1.5810347900390624 1.537125 Q 1.5810347900390624 1.5093750000000001 1.5765347900390625 1.49625 Q 1.5720347900390625 1.483125 1.5589097900390625 1.47825 Q 1.5457847900390624 1.473375 1.5202847900390626 1.472625 L 1.5202847900390626 1.4576250000000002 M 1.6395347900390624 1.723875 Q 1.6800347900390624 1.725375 1.7032847900390624 1.7272500000000002 Q 1.7265347900390626 1.729125 1.7411597900390625 1.730625 Q 1.7557847900390624 1.7321250000000001 1.7692847900390625 1.734375 Q 1.8195347900390626 1.742625 1.8416597900390625 1.76475 Q 1.8637847900390625 1.786875 1.8742847900390625 1.8333750000000002 L 1.8930347900390625 1.909875 Q 1.9005347900390626 1.9428750000000001 1.9084097900390624 1.9575 Q 1.9162847900390625 1.9721250000000001 1.9327847900390625 1.971375 Q 1.9455347900390625 1.970625 1.9541597900390624 1.963125 Q 1.9627847900390625 1.9556250000000002 1.9725347900390626 1.9428750000000001 L 1.9837847900390626 1.951125 Q 1.9680347900390625 1.974375 1.9511597900390625 1.98675 Q 1.9342847900390625 1.999125 1.9035347900390625 1.999125 Q 1.8757847900390625 1.999125 1.8547847900390626 1.982625 Q 1.8337847900390625 1.9661250000000001 1.8232847900390625 1.918125 L 1.8067847900390626 1.8431250000000001 Q 1.8000347900390625 1.810875 1.7914097900390624 1.78725 Q 1.7827847900390625 1.763625 1.7674097900390624 1.7501250000000002 Q 1.7520347900390625 1.736625 1.7220347900390625 1.736625 L 1.6410347900390625 1.736625 L 1.6395347900390624 1.723875 M 2.369294677734375 1.453875 L 2.552294677734375 1.9256250000000001 Q 2.563544677734375 1.9541250000000001 2.577794677734375 1.9635 Q 2.592044677734375 1.9728750000000002 2.604044677734375 1.9736250000000002 L 2.604044677734375 1.988625 Q 2.589044677734375 1.987125 2.567294677734375 1.98675 Q 2.545544677734375 1.986375 2.523794677734375 1.986375 Q 2.494544677734375 1.986375 2.469044677734375 1.98675 Q 2.443544677734375 1.987125 2.427794677734375 1.988625 L 2.427794677734375 1.9736250000000002 Q 2.466044677734375 1.9721250000000001 2.476544677734375 1.9605000000000001 Q 2.487044677734375 1.9488750000000001 2.472044677734375 1.910625 L 2.332544677734375 1.537875 L 2.344544677734375 1.5281250000000002 L 2.214044677734375 1.8671250000000001 Q 2.202044677734375 1.8971250000000002 2.199794677734375 1.91775 Q 2.197544677734375 1.9383750000000002 2.203919677734375 1.9503750000000002 Q 2.210294677734375 1.962375 2.225669677734375 1.9676250000000002 Q 2.241044677734375 1.9728750000000002 2.264294677734375 1.9736250000000002 L 2.264294677734375 1.988625 Q 2.243294677734375 1.987125 2.220419677734375 1.98675 Q 2.197544677734375 1.986375 2.178044677734375 1.986375 Q 2.159294677734375 1.986375 2.146169677734375 1.98675 Q 2.133044677734375 1.987125 2.121794677734375 1.988625 L 2.121794677734375 1.9736250000000002 Q 2.136794677734375 1.969875 2.152544677734375 1.9560000000000002 Q 2.168294677734375 1.942125 2.181044677734375 1.9083750000000002 L 2.357294677734375 1.453875 Q 2.360294677734375 1.453875 2.363294677734375 1.453875 Q 2.366294677734375 1.453875 2.369294677734375 1.453875 M 2.460794677734375 1.7726250000000001 L 2.460794677734375 1.787625 L 2.237294677734375 1.787625 L 2.244794677734375 1.7726250000000001 L 2.460794677734375 1.7726250000000001 M 2.80728369140625 1.4576250000000002 L 2.80728369140625 1.472625 Q 2.78178369140625 1.473375 2.76865869140625 1.47825 Q 2.75553369140625 1.483125 2.75103369140625 1.49625 Q 2.74653369140625 1.5093750000000001 2.74653369140625 1.537125 L 2.74653369140625 1.9091250000000002 Q 2.74653369140625 1.936125 2.75103369140625 1.9496250000000002 Q 2.75553369140625 1.963125 2.76865869140625 1.9676250000000002 Q 2.78178369140625 1.9721250000000001 2.80728369140625 1.9736250000000002 L 2.80728369140625 1.988625 Q 2.79003369140625 1.987125 2.76415869140625 1.98675 Q 2.73828369140625 1.986375 2.71203369140625 1.986375 Q 2.68278369140625 1.986375 2.65728369140625 1.98675 Q 2.63178369140625 1.987125 2.61603369140625 1.988625 L 2.61603369140625 1.9736250000000002 Q 2.64153369140625 1.9721250000000001 2.65465869140625 1.9676250000000002 Q 2.66778369140625 1.963125 2.67228369140625 1.9496250000000002 Q 2.67678369140625 1.936125 2.67678369140625 1.9091250000000002 L 2.67678369140625 1.537125 Q 2.67678369140625 1.5093750000000001 2.67228369140625 1.49625 Q 2.66778369140625 1.483125 2.65465869140625 1.47825 Q 2.64153369140625 1.473375 2.61603369140625 1.472625 L 2.61603369140625 1.4576250000000002 Q 2.63178369140625 1.4583750000000002 2.65728369140625 1.4591250000000002 Q 2.68278369140625 1.459875 2.71203369140625 1.459875 Q 2.73828369140625 1.459875 2.76415869140625 1.4591250000000002 Q 2.79003369140625 1.4583750000000002 2.80728369140625 1.4576250000000002 M 3.248293212890625 1.4576250000000002 L 3.248293212890625 1.472625 Q 3.222793212890625 1.473375 3.209668212890625 1.47825 Q 3.196543212890625 1.483125 3.192043212890625 1.49625 Q 3.187543212890625 1.5093750000000001 3.187543212890625 1.537125 L 3.187543212890625 1.9091250000000002 Q 3.187543212890625 1.936125 3.192043212890625 1.9496250000000002 Q 3.196543212890625 1.963125 3.209668212890625 1.9676250000000002 Q 3.222793212890625 1.9721250000000001 3.248293212890625 1.9736250000000002 L 3.248293212890625 1.988625 Q 3.231043212890625 1.987125 3.205168212890625 1.98675 Q 3.179293212890625 1.986375 3.153043212890625 1.986375 Q 3.123793212890625 1.986375 3.098293212890625 1.98675 Q 3.072793212890625 1.987125 3.057043212890625 1.988625 L 3.057043212890625 1.9736250000000002 Q 3.082543212890625 1.9721250000000001 3.095668212890625 1.9676250000000002 Q 3.108793212890625 1.963125 3.113293212890625 1.9496250000000002 Q 3.117793212890625 1.936125 3.117793212890625 1.9091250000000002 L 3.117793212890625 1.537125 Q 3.117793212890625 1.5093750000000001 3.113293212890625 1.49625 Q 3.108793212890625 1.483125 3.095668212890625 1.47825 Q 3.082543212890625 1.473375 3.057043212890625 1.472625 L 3.057043212890625 1.4576250000000002 Q 3.072793212890625 1.4583750000000002 3.098293212890625 1.4591250000000002 Q 3.123793212890625 1.459875 3.153043212890625 1.459875 Q 3.179293212890625 1.459875 3.205168212890625 1.4591250000000002 Q 3.231043212890625 1.4583750000000002 3.248293212890625 1.4576250000000002 M 3.78228515625 1.4576250000000002 L 3.78228515625 1.472625 Q 3.75678515625 1.473375 3.74366015625 1.4801250000000001 Q 3.73053515625 1.486875 3.72603515625 1.501875 Q 3.72153515625 1.5168750000000002 3.72153515625 1.5446250000000001 L 3.72153515625 1.992375 Q 3.71703515625 1.992375 3.71291015625 1.992375 Q 3.70878515625 1.992375 3.70428515625 1.992375 L 3.38928515625 1.5056250000000002 L 3.38928515625 1.9016250000000001 Q 3.38928515625 1.928625 3.39416015625 1.9440000000000002 Q 3.39903515625 1.959375 3.41366015625 1.96575 Q 3.42828515625 1.9721250000000001 3.45753515625 1.9736250000000002 L 3.45753515625 1.988625 Q 3.44403515625 1.987125 3.42228515625 1.98675 Q 3.40053515625 1.986375 3.38103515625 1.986375 Q 3.36228515625 1.986375 3.34316015625 1.98675 Q 3.32403515625 1.987125 3.31128515625 1.988625 L 3.31128515625 1.9736250000000002 Q 3.33678515625 1.9721250000000001 3.34991015625 1.96575 Q 3.36303515625 1.959375 3.36753515625 1.9440000000000002 Q 3.37203515625 1.928625 3.37203515625 1.9016250000000001 L 3.37203515625 1.537125 Q 3.37203515625 1.5093750000000001 3.36753515625 1.49625 Q 3.36303515625 1.483125 3.34991015625 1.47825 Q 3.33678515625 1.473375 3.31128515625 1.472625 L 3.31128515625 1.4576250000000002 Q 3.32403515625 1.4583750000000002 3.34316015625 1.4591250000000002 Q 3.36228515625 1.459875 3.38103515625 1.459875 Q 3.39753515625 1.459875 3.41253515625 1.4591250000000002 Q 3.42753515625 1.4583750000000002 3.43953515625 1.4576250000000002 L 3.70428515625 1.865625 L 3.70428515625 1.5446250000000001 Q 3.70428515625 1.5168750000000002 3.69941015625 1.501875 Q 3.69453515625 1.486875 3.67991015625 1.4801250000000001 Q 3.66528515625 1.473375 3.63603515625 1.472625 L 3.63603515625 1.4576250000000002 Q 3.64953515625 1.4583750000000002 3.67166015625 1.4591250000000002 Q 3.69378515625 1.459875 3.71253515625 1.459875 Q 3.73203515625 1.459875 3.75116015625 1.4591250000000002 Q 3.77028515625 1.4583750000000002 3.78228515625 1.4576250000000002 M 4.2532803955078125 1.4576250000000002 Q 4.250280395507812 1.486125 4.249155395507812 1.51275 Q 4.248030395507812 1.5393750000000002 4.248030395507812 1.553625 Q 4.248030395507812 1.571625 4.248780395507812 1.5873750000000002 Q 4.249530395507812 1.6031250000000001 4.250280395507812 1.6151250000000001 L 4.233030395507813 1.6151250000000001 Q 4.227780395507812 1.5626250000000002 4.218780395507813 1.5322500000000001 Q 4.209780395507813 1.501875 4.187280395507813 1.488375 Q 4.164780395507813 1.474875 4.117530395507813 1.474875 L 4.077030395507813 1.474875 L 4.077030395507813 1.9016250000000001 Q 4.077030395507813 1.9316250000000001 4.082655395507812 1.946625 Q 4.088280395507812 1.9616250000000002 4.104780395507812 1.9668750000000002 Q 4.121280395507813 1.9721250000000001 4.152780395507812 1.9736250000000002 L 4.152780395507812 1.988625 Q 4.133280395507812 1.987125 4.103280395507812 1.98675 Q 4.073280395507813 1.986375 4.0425303955078125 1.986375 Q 4.008780395507813 1.986375 3.9791553955078127 1.98675 Q 3.9495303955078125 1.987125 3.9315303955078127 1.988625 L 3.9315303955078127 1.9736250000000002 Q 3.9630303955078126 1.9721250000000001 3.9795303955078127 1.9668750000000002 Q 3.9960303955078125 1.9616250000000002 4.001655395507813 1.946625 Q 4.007280395507813 1.9316250000000001 4.007280395507813 1.9016250000000001 L 4.007280395507813 1.474875 L 3.9667803955078127 1.474875 Q 3.9202803955078127 1.474875 3.8974053955078123 1.488375 Q 3.8745303955078123 1.501875 3.8655303955078124 1.5322500000000001 Q 3.8565303955078125 1.5626250000000002 3.8512803955078123 1.6151250000000001 L 3.8340303955078125 1.6151250000000001 Q 3.8355303955078126 1.6031250000000001 3.8359053955078126 1.5873750000000002 Q 3.8362803955078126 1.571625 3.8362803955078126 1.553625 Q 3.8362803955078126 1.5393750000000002 3.8351553955078126 1.51275 Q 3.8340303955078125 1.486125 3.8310303955078124 1.4576250000000002 Q 3.8625303955078123 1.4583750000000002 3.8996553955078124 1.4591250000000002 Q 3.9367803955078124 1.459875 3.9742803955078125 1.459875 Q 4.011780395507812 1.459875 4.0425303955078125 1.459875 Q 4.073280395507813 1.459875 4.110405395507812 1.459875 Q 4.147530395507813 1.459875 4.1850303955078125 1.4591250000000002 Q 4.222530395507812 1.4583750000000002 4.2532803955078125 1.4576250000000002 M 4.680759155273438 1.4576250000000002 Q 4.677759155273438 1.483875 4.676634155273438 1.508625 Q 4.675509155273438 1.5333750000000002 4.675509155273438 1.546125 Q 4.675509155273438 1.559625 4.676259155273438 1.572 Q 4.677009155273438 1.584375 4.677759155273438 1.592625 L 4.660509155273438 1.592625 Q 4.656009155273438 1.548375 4.647759155273437 1.5225 Q 4.639509155273437 1.496625 4.619634155273437 1.4857500000000001 Q 4.599759155273437 1.474875 4.560009155273438 1.474875 L 4.497759155273437 1.474875 Q 4.472259155273438 1.474875 4.459134155273437 1.479 Q 4.446009155273438 1.483125 4.441509155273438 1.49625 Q 4.437009155273437 1.5093750000000001 4.437009155273437 1.537125 L 4.437009155273437 1.9091250000000002 Q 4.437009155273437 1.936125 4.441509155273438 1.9496250000000002 Q 4.446009155273438 1.963125 4.459134155273437 1.9672500000000002 Q 4.472259155273438 1.971375 4.497759155273437 1.971375 L 4.552509155273437 1.971375 Q 4.599759155273437 1.971375 4.624134155273437 1.958625 Q 4.648509155273437 1.945875 4.659384155273438 1.917 Q 4.670259155273437 1.888125 4.675509155273438 1.8386250000000002 L 4.692759155273437 1.8386250000000002 Q 4.690509155273437 1.858875 4.690509155273437 1.892625 Q 4.690509155273437 1.906875 4.691634155273437 1.9335 Q 4.692759155273437 1.9601250000000001 4.6957591552734375 1.988625 Q 4.657509155273438 1.987125 4.609509155273438 1.98675 Q 4.561509155273438 1.986375 4.524009155273437 1.986375 Q 4.507509155273437 1.986375 4.481634155273437 1.986375 Q 4.455759155273437 1.986375 4.425759155273438 1.98675 Q 4.395759155273438 1.987125 4.365009155273437 1.9875 Q 4.334259155273437 1.987875 4.306509155273438 1.988625 L 4.306509155273438 1.9736250000000002 Q 4.332009155273438 1.9721250000000001 4.3451341552734375 1.9676250000000002 Q 4.358259155273437 1.963125 4.362759155273437 1.9496250000000002 Q 4.367259155273437 1.936125 4.367259155273437 1.9091250000000002 L 4.367259155273437 1.537125 Q 4.367259155273437 1.5093750000000001 4.362759155273437 1.49625 Q 4.358259155273437 1.483125 4.3451341552734375 1.47825 Q 4.332009155273438 1.473375 4.306509155273438 1.472625 L 4.306509155273438 1.4576250000000002 Q 4.334259155273437 1.4583750000000002 4.365009155273437 1.4587500000000002 Q 4.395759155273438 1.4591250000000002 4.425759155273438 1.4595000000000002 Q 4.455759155273437 1.459875 4.481634155273437 1.459875 Q 4.507509155273437 1.459875 4.524009155273437 1.459875 Q 4.558509155273438 1.459875 4.6023841552734375 1.4595000000000002 Q 4.646259155273437 1.4591250000000002 4.680759155273438 1.4576250000000002 M 4.551759155273437 1.7141250000000001 Q 4.551759155273437 1.7141250000000001 4.551759155273437 1.721625 Q 4.551759155273437 1.729125 4.551759155273437 1.729125 L 4.4145091552734375 1.729125 Q 4.4145091552734375 1.729125 4.4145091552734375 1.721625 Q 4.4145091552734375 1.7141250000000001 4.4145091552734375 1.7141250000000001 L 4.551759155273437 1.7141250000000001 M 4.573509155273437 1.6151250000000001 Q 4.570509155273437 1.6578750000000002 4.570884155273437 1.6803750000000002 Q 4.571259155273437 1.7028750000000001 4.571259155273437 1.721625 Q 4.571259155273437 1.740375 4.572009155273437 1.7628750000000002 Q 4.572759155273437 1.7853750000000002 4.575759155273437 1.828125 L 4.558509155273438 1.828125 Q 4.5555091552734375 1.804125 4.551384155273437 1.78125 Q 4.547259155273437 1.758375 4.5333841552734375 1.7437500000000001 Q 4.519509155273438 1.729125 4.4865091552734375 1.729125 L 4.4865091552734375 1.7141250000000001 Q 4.511259155273438 1.7141250000000001 4.524384155273437 1.7040000000000002 Q 4.537509155273438 1.693875 4.543509155273438 1.678125 Q 4.549509155273437 1.6623750000000002 4.551759155273437 1.6455000000000002 Q 4.554009155273437 1.628625 4.5562591552734375 1.6151250000000001 L 4.573509155273437 1.6151250000000001 M 4.763265747070313 1.4576250000000002 Q 4.7790157470703125 1.4583750000000002 4.804515747070313 1.4591250000000002 Q 4.830015747070313 1.459875 4.854765747070313 1.459875 Q 4.890015747070312 1.459875 4.922265747070313 1.4591250000000002 Q 4.954515747070312 1.4583750000000002 4.968015747070313 1.4583750000000002 Q 5.028765747070312 1.4583750000000002 5.068890747070313 1.475625 Q 5.109015747070313 1.4928750000000002 5.1288907470703125 1.5225 Q 5.148765747070312 1.5521250000000002 5.148765747070312 1.588875 Q 5.148765747070312 1.611375 5.139765747070313 1.636875 Q 5.1307657470703125 1.6623750000000002 5.108640747070313 1.6848750000000001 Q 5.086515747070313 1.707375 5.048265747070312 1.722 Q 5.010015747070312 1.736625 4.951515747070313 1.736625 L 4.879515747070313 1.736625 L 4.879515747070313 1.721625 L 4.9440157470703125 1.721625 Q 4.997265747070313 1.721625 5.025390747070313 1.7047500000000002 Q 5.053515747070312 1.687875 5.063640747070313 1.65975 Q 5.073765747070312 1.631625 5.073765747070312 1.5971250000000001 Q 5.073765747070312 1.537875 5.045640747070313 1.5052500000000002 Q 5.017515747070313 1.472625 4.949265747070313 1.472625 Q 4.914765747070312 1.472625 4.904265747070313 1.4853750000000001 Q 4.893765747070312 1.4981250000000002 4.893765747070312 1.537125 L 4.893765747070312 1.9091250000000002 Q 4.893765747070312 1.936125 4.898265747070313 1.9496250000000002 Q 4.902765747070313 1.963125 4.915890747070312 1.9676250000000002 Q 4.929015747070313 1.9721250000000001 4.954515747070312 1.9736250000000002 L 4.954515747070312 1.988625 Q 4.937265747070312 1.987125 4.911390747070312 1.98675 Q 4.885515747070312 1.986375 4.859265747070313 1.986375 Q 4.830015747070313 1.986375 4.804515747070313 1.98675 Q 4.7790157470703125 1.987125 4.763265747070313 1.988625 L 4.763265747070313 1.9736250000000002 Q 4.788765747070313 1.9721250000000001 4.8018907470703125 1.9676250000000002 Q 4.815015747070312 1.963125 4.819515747070312 1.9496250000000002 Q 4.824015747070312 1.936125 4.824015747070312 1.9091250000000002 L 4.824015747070312 1.537125 Q 4.824015747070312 1.5093750000000001 4.819515747070312 1.49625 Q 4.815015747070312 1.483125 4.8018907470703125 1.47825 Q 4.788765747070313 1.473375 4.763265747070313 1.472625 L 4.763265747070313 1.4576250000000002 M 4.882515747070313 1.723875 Q 4.923015747070313 1.725375 4.946265747070313 1.7272500000000002 Q 4.969515747070313 1.729125 4.984140747070312 1.730625 Q 4.998765747070313 1.7321250000000001 5.0122657470703125 1.734375 Q 5.062515747070313 1.742625 5.0846407470703125 1.76475 Q 5.1067657470703125 1.786875 5.117265747070313 1.8333750000000002 L 5.136015747070313 1.909875 Q 5.143515747070312 1.9428750000000001 5.151390747070312 1.9575 Q 5.159265747070313 1.9721250000000001 5.1757657470703125 1.971375 Q 5.188515747070312 1.970625 5.197140747070312 1.963125 Q 5.205765747070313 1.9556250000000002 5.215515747070312 1.9428750000000001 L 5.226765747070313 1.951125 Q 5.211015747070313 1.974375 5.194140747070312 1.98675 Q 5.1772657470703125 1.999125 5.146515747070312 1.999125 Q 5.118765747070313 1.999125 5.097765747070312 1.982625 Q 5.076765747070312 1.9661250000000001 5.066265747070313 1.918125 L 5.049765747070312 1.8431250000000001 Q 5.043015747070313 1.810875 5.034390747070312 1.78725 Q 5.025765747070312 1.763625 5.010390747070312 1.7501250000000002 Q 4.995015747070313 1.736625 4.9650157470703125 1.736625 L 4.884015747070313 1.736625 L 4.882515747070313 1.723875 M 5.6797763671875 1.4576250000000002 L 5.6797763671875 1.472625 Q 5.6655263671875 1.475625 5.6494013671875 1.489875 Q 5.6332763671875 1.5041250000000002 5.6205263671875 1.537875 L 5.4442763671875 1.992375 Q 5.4427763671875 1.992375 5.4412763671875 1.992375 Q 5.4397763671875 1.992375 5.4382763671875 1.992375 Q 5.4367763671875 1.992375 5.4352763671875 1.992375 Q 5.4337763671875 1.992375 5.4322763671875 1.992375 L 5.2492763671875 1.5206250000000001 Q 5.2380263671875 1.4921250000000001 5.2237763671875 1.4827500000000002 Q 5.2095263671875 1.473375 5.1975263671875 1.472625 L 5.1975263671875 1.4576250000000002 Q 5.2125263671875 1.4583750000000002 5.2346513671875 1.4591250000000002 Q 5.2567763671875 1.459875 5.2777763671875 1.459875 Q 5.3070263671875 1.459875 5.3325263671875 1.4591250000000002 Q 5.3580263671875 1.4583750000000002 5.3737763671875 1.4576250000000002 L 5.3737763671875 1.472625 Q 5.3482763671875 1.473375 5.3351513671875 1.478625 Q 5.3220263671875 1.483875 5.3209013671875 1.497 Q 5.3197763671875 1.510125 5.3295263671875 1.535625 L 5.4690263671875 1.905375 L 5.4570263671875 1.918125 L 5.5875263671875 1.5791250000000001 Q 5.6032763671875 1.5386250000000001 5.6025263671875 1.5157500000000002 Q 5.6017763671875 1.4928750000000002 5.5852763671875 1.483125 Q 5.5687763671875 1.473375 5.5372763671875 1.472625 L 5.5372763671875 1.4576250000000002 Q 5.5590263671875 1.4583750000000002 5.5815263671875 1.4591250000000002 Q 5.6040263671875 1.459875 5.6235263671875 1.459875 Q 5.6430263671875 1.459875 5.6557763671875 1.4591250000000002 Q 5.6685263671875 1.4583750000000002 5.6797763671875 1.4576250000000002 M 5.897280029296875 1.4576250000000002 L 5.897280029296875 1.472625 Q 5.871780029296875 1.473375 5.858655029296875 1.47825 Q 5.845530029296875 1.483125 5.841030029296875 1.49625 Q 5.836530029296875 1.5093750000000001 5.836530029296875 1.537125 L 5.836530029296875 1.9091250000000002 Q 5.836530029296875 1.936125 5.841030029296875 1.9496250000000002 Q 5.845530029296875 1.963125 5.858655029296875 1.9676250000000002 Q 5.871780029296875 1.9721250000000001 5.897280029296875 1.9736250000000002 L 5.897280029296875 1.988625 Q 5.880030029296875 1.987125 5.854155029296875 1.98675 Q 5.828280029296875 1.986375 5.802030029296875 1.986375 Q 5.772780029296875 1.986375 5.747280029296875 1.98675 Q 5.721780029296875 1.987125 5.706030029296875 1.988625 L 5.706030029296875 1.9736250000000002 Q 5.731530029296875 1.9721250000000001 5.744655029296875 1.9676250000000002 Q 5.757780029296875 1.963125 5.762280029296875 1.9496250000000002 Q 5.766780029296875 1.936125 5.766780029296875 1.9091250000000002 L 5.766780029296875 1.537125 Q 5.766780029296875 1.5093750000000001 5.762280029296875 1.49625 Q 5.757780029296875 1.483125 5.744655029296875 1.47825 Q 5.731530029296875 1.473375 5.706030029296875 1.472625 L 5.706030029296875 1.4576250000000002 Q 5.721780029296875 1.4583750000000002 5.747280029296875 1.4591250000000002 Q 5.772780029296875 1.459875 5.802030029296875 1.459875 Q 5.828280029296875 1.459875 5.854155029296875 1.4591250000000002 Q 5.880030029296875 1.4583750000000002 5.897280029296875 1.4576250000000002 M 6.33452197265625 1.4576250000000002 Q 6.33152197265625 1.483875 6.33039697265625 1.508625 Q 6.32927197265625 1.5333750000000002 6.32927197265625 1.546125 Q 6.32927197265625 1.559625 6.33002197265625 1.572 Q 6.33077197265625 1.584375 6.33152197265625 1.592625 L 6.31427197265625 1.592625 Q 6.30977197265625 1.548375 6.30152197265625 1.5225 Q 6.29327197265625 1.496625 6.27339697265625 1.4857500000000001 Q 6.25352197265625 1.474875 6.21377197265625 1.474875 L 6.15152197265625 1.474875 Q 6.12602197265625 1.474875 6.11289697265625 1.479 Q 6.09977197265625 1.483125 6.09527197265625 1.49625 Q 6.09077197265625 1.5093750000000001 6.09077197265625 1.537125 L 6.09077197265625 1.9091250000000002 Q 6.09077197265625 1.936125 6.09527197265625 1.9496250000000002 Q 6.09977197265625 1.963125 6.11289697265625 1.9672500000000002 Q 6.12602197265625 1.971375 6.15152197265625 1.971375 L 6.20627197265625 1.971375 Q 6.25352197265625 1.971375 6.27789697265625 1.958625 Q 6.30227197265625 1.945875 6.31314697265625 1.917 Q 6.32402197265625 1.888125 6.32927197265625 1.8386250000000002 L 6.34652197265625 1.8386250000000002 Q 6.34427197265625 1.858875 6.34427197265625 1.892625 Q 6.34427197265625 1.906875 6.34539697265625 1.9335 Q 6.34652197265625 1.9601250000000001 6.34952197265625 1.988625 Q 6.31127197265625 1.987125 6.26327197265625 1.98675 Q 6.21527197265625 1.986375 6.17777197265625 1.986375 Q 6.16127197265625 1.986375 6.13539697265625 1.986375 Q 6.10952197265625 1.986375 6.07952197265625 1.98675 Q 6.04952197265625 1.987125 6.01877197265625 1.9875 Q 5.98802197265625 1.987875 5.96027197265625 1.988625 L 5.96027197265625 1.9736250000000002 Q 5.98577197265625 1.9721250000000001 5.99889697265625 1.9676250000000002 Q 6.01202197265625 1.963125 6.01652197265625 1.9496250000000002 Q 6.02102197265625 1.936125 6.02102197265625 1.9091250000000002 L 6.02102197265625 1.537125 Q 6.02102197265625 1.5093750000000001 6.01652197265625 1.49625 Q 6.01202197265625 1.483125 5.99889697265625 1.47825 Q 5.98577197265625 1.473375 5.96027197265625 1.472625 L 5.96027197265625 1.4576250000000002 Q 5.98802197265625 1.4583750000000002 6.01877197265625 1.4587500000000002 Q 6.04952197265625 1.4591250000000002 6.07952197265625 1.4595000000000002 Q 6.10952197265625 1.459875 6.13539697265625 1.459875 Q 6.16127197265625 1.459875 6.17777197265625 1.459875 Q 6.21227197265625 1.459875 6.25614697265625 1.4595000000000002 Q 6.30002197265625 1.4591250000000002 6.33452197265625 1.4576250000000002 M 6.20552197265625 1.7141250000000001 Q 6.20552197265625 1.7141250000000001 6.20552197265625 1.721625 Q 6.20552197265625 1.729125 6.20552197265625 1.729125 L 6.06827197265625 1.729125 Q 6.06827197265625 1.729125 6.06827197265625 1.721625 Q 6.06827197265625 1.7141250000000001 6.06827197265625 1.7141250000000001 L 6.20552197265625 1.7141250000000001 M 6.22727197265625 1.6151250000000001 Q 6.22427197265625 1.6578750000000002 6.22464697265625 1.6803750000000002 Q 6.22502197265625 1.7028750000000001 6.22502197265625 1.721625 Q 6.22502197265625 1.740375 6.22577197265625 1.7628750000000002 Q 6.22652197265625 1.7853750000000002 6.22952197265625 1.828125 L 6.21227197265625 1.828125 Q 6.20927197265625 1.804125 6.20514697265625 1.78125 Q 6.20102197265625 1.758375 6.18714697265625 1.7437500000000001 Q 6.17327197265625 1.729125 6.14027197265625 1.729125 L 6.14027197265625 1.7141250000000001 Q 6.16502197265625 1.7141250000000001 6.17814697265625 1.7040000000000002 Q 6.19127197265625 1.693875 6.19727197265625 1.678125 Q 6.20327197265625 1.6623750000000002 6.20552197265625 1.6455000000000002 Q 6.20777197265625 1.628625 6.21002197265625 1.6151250000000001 L 6.22727197265625 1.6151250000000001 M 7.065778564453125 1.4576250000000002 L 7.065778564453125 1.472625 Q 7.051528564453125 1.475625 7.034278564453125 1.4895 Q 7.017028564453125 1.5033750000000001 7.006528564453125 1.537875 L 6.864778564453125 1.992375 Q 6.863278564453125 1.992375 6.861778564453125 1.992375 Q 6.860278564453125 1.992375 6.858778564453125 1.992375 Q 6.857278564453125 1.992375 6.855778564453125 1.992375 Q 6.854278564453125 1.992375 6.852778564453125 1.992375 L 6.693778564453125 1.5206250000000001 Q 6.684028564453125 1.4913750000000001 6.672028564453125 1.4823750000000002 Q 6.660028564453125 1.473375 6.649528564453125 1.472625 L 6.649528564453125 1.4576250000000002 Q 6.663028564453125 1.4583750000000002 6.683278564453125 1.4591250000000002 Q 6.703528564453125 1.459875 6.722278564453125 1.459875 Q 6.751528564453125 1.459875 6.777028564453125 1.4591250000000002 Q 6.802528564453125 1.4583750000000002 6.818278564453125 1.4576250000000002 L 6.818278564453125 1.472625 Q 6.795778564453125 1.473375 6.782653564453125 1.477125 Q 6.769528564453125 1.4808750000000002 6.767653564453125 1.4936250000000002 Q 6.765778564453125 1.506375 6.774778564453125 1.535625 L 6.886528564453125 1.881375 L 6.876028564453125 1.8903750000000001 L 6.975028564453125 1.5791250000000001 Q 6.988528564453125 1.537875 6.987403564453125 1.5150000000000001 Q 6.986278564453125 1.4921250000000001 6.970528564453125 1.4827500000000002 Q 6.954778564453125 1.473375 6.923278564453125 1.472625 L 6.923278564453125 1.4576250000000002 Q 6.945028564453125 1.4583750000000002 6.967528564453125 1.4591250000000002 Q 6.990028564453125 1.459875 7.009528564453125 1.459875 Q 7.0290285644531245 1.459875 7.041778564453125 1.4591250000000002 Q 7.0545285644531255 1.4583750000000002 7.065778564453125 1.4576250000000002 M 6.541528564453125 1.4576250000000002 L 6.541528564453125 1.472625 Q 6.522028564453125 1.4741250000000001 6.513403564453125 1.4801250000000001 Q 6.504778564453125 1.486125 6.505153564453125 1.49925 Q 6.505528564453125 1.512375 6.513028564453125 1.535625 L 6.629278564453125 1.8903750000000001 L 6.610528564453125 1.9091250000000002 L 6.715528564453125 1.5738750000000001 L 6.726778564453125 1.5918750000000002 L 6.603028564453125 1.992375 Q 6.601528564453125 1.992375 6.600028564453125 1.992375 Q 6.598528564453125 1.992375 6.597028564453125 1.992375 Q 6.595528564453125 1.992375 6.594028564453125 1.992375 Q 6.592528564453125 1.992375 6.591028564453125 1.992375 L 6.432028564453125 1.5206250000000001 Q 6.422278564453125 1.4913750000000001 6.407278564453125 1.4823750000000002 Q 6.392278564453125 1.473375 6.380278564453125 1.472625 L 6.380278564453125 1.4576250000000002 Q 6.395278564453125 1.4583750000000002 6.417403564453125 1.4591250000000002 Q 6.439528564453125 1.459875 6.460528564453125 1.459875 Q 6.485278564453125 1.459875 6.506653564453125 1.4591250000000002 Q 6.528028564453125 1.4583750000000002 6.541528564453125 1.4576250000000002 M 7.504553100585937 1.4471250000000002 Q 7.5540531005859375 1.4471250000000002 7.585928100585938 1.46175 Q 7.617803100585937 1.476375 7.642553100585937 1.495875 Q 7.657553100585938 1.507125 7.665428100585937 1.4985 Q 7.673303100585938 1.489875 7.676303100585938 1.4576250000000002 L 7.693553100585937 1.4576250000000002 Q 7.692053100585937 1.4853750000000001 7.691303100585937 1.525125 Q 7.690553100585937 1.564875 7.690553100585937 1.630125 L 7.673303100585938 1.630125 Q 7.668053100585937 1.5978750000000002 7.663553100585937 1.57875 Q 7.659053100585938 1.559625 7.652678100585938 1.546125 Q 7.646303100585937 1.5326250000000001 7.635803100585938 1.519125 Q 7.612553100585938 1.488375 7.5773031005859375 1.4745 Q 7.542053100585938 1.460625 7.503053100585937 1.460625 Q 7.466303100585938 1.460625 7.4366781005859375 1.479 Q 7.407053100585937 1.4973750000000001 7.385678100585937 1.531875 Q 7.364303100585937 1.566375 7.352678100585938 1.6151250000000001 Q 7.341053100585937 1.663875 7.341053100585937 1.724625 Q 7.341053100585937 1.787625 7.353803100585938 1.836 Q 7.3665531005859375 1.8843750000000001 7.3894281005859375 1.917375 Q 7.412303100585937 1.9503750000000002 7.443428100585938 1.9672500000000002 Q 7.474553100585937 1.9841250000000001 7.510553100585938 1.9841250000000001 Q 7.544303100585937 1.9841250000000001 7.581053100585938 1.970625 Q 7.617803100585937 1.957125 7.638803100585937 1.9271250000000002 Q 7.655303100585938 1.905375 7.661678100585937 1.8798750000000002 Q 7.668053100585937 1.854375 7.673303100585938 1.8086250000000001 L 7.690553100585937 1.8086250000000001 Q 7.690553100585937 1.876875 7.691303100585937 1.9185 Q 7.692053100585937 1.9601250000000001 7.693553100585937 1.988625 L 7.676303100585938 1.988625 Q 7.673303100585938 1.956375 7.666178100585937 1.948125 Q 7.659053100585938 1.939875 7.642553100585937 1.9503750000000002 Q 7.614803100585937 1.969875 7.583678100585938 1.9845000000000002 Q 7.552553100585937 1.999125 7.503803100585937 1.999125 Q 7.432553100585937 1.999125 7.378928100585938 1.9668750000000002 Q 7.325303100585938 1.934625 7.2956781005859375 1.8738750000000002 Q 7.266053100585937 1.813125 7.266053100585937 1.7276250000000002 Q 7.266053100585937 1.6436250000000001 7.2968031005859375 1.580625 Q 7.327553100585938 1.517625 7.381178100585937 1.4823750000000002 Q 7.434803100585937 1.4471250000000002 7.504553100585937 1.4471250000000002 M 8.020544311523437 1.4471250000000002 Q 8.091794311523438 1.4471250000000002 8.145419311523437 1.479375 Q 8.199044311523437 1.511625 8.228669311523438 1.572 Q 8.258294311523438 1.6323750000000001 8.258294311523438 1.718625 Q 8.258294311523438 1.8026250000000001 8.227919311523438 1.865625 Q 8.197544311523437 1.928625 8.143544311523437 1.963875 Q 8.089544311523438 1.999125 8.019794311523437 1.999125 Q 7.948544311523437 1.999125 7.894919311523438 1.9668750000000002 Q 7.841294311523438 1.934625 7.8116693115234375 1.8738750000000002 Q 7.782044311523437 1.813125 7.782044311523437 1.7276250000000002 Q 7.782044311523437 1.6436250000000001 7.8127943115234375 1.580625 Q 7.843544311523438 1.517625 7.897169311523437 1.4823750000000002 Q 7.950794311523437 1.4471250000000002 8.020544311523437 1.4471250000000002 M 8.017544311523437 1.460625 Q 7.968794311523437 1.460625 7.932794311523438 1.494375 Q 7.896794311523437 1.5281250000000002 7.876919311523437 1.5873750000000002 Q 7.857044311523437 1.646625 7.857044311523437 1.724625 Q 7.857044311523437 1.804125 7.879169311523437 1.863 Q 7.901294311523437 1.921875 7.939169311523438 1.95375 Q 7.9770443115234375 1.9856250000000002 8.022794311523437 1.9856250000000002 Q 8.071544311523438 1.9856250000000002 8.107544311523437 1.951875 Q 8.143544311523437 1.918125 8.163419311523437 1.8585 Q 8.183294311523438 1.798875 8.183294311523438 1.721625 Q 8.183294311523438 1.641375 8.161169311523437 1.582875 Q 8.139044311523438 1.524375 8.101544311523437 1.4925000000000002 Q 8.064044311523437 1.460625 8.017544311523437 1.460625 M 8.52832177734375 1.453875 L 8.71132177734375 1.9256250000000001 Q 8.72257177734375 1.9541250000000001 8.73682177734375 1.9635 Q 8.75107177734375 1.9728750000000002 8.76307177734375 1.9736250000000002 L 8.76307177734375 1.988625 Q 8.74807177734375 1.987125 8.72632177734375 1.98675 Q 8.70457177734375 1.986375 8.68282177734375 1.986375 Q 8.65357177734375 1.986375 8.62807177734375 1.98675 Q 8.60257177734375 1.987125 8.58682177734375 1.988625 L 8.58682177734375 1.9736250000000002 Q 8.62507177734375 1.9721250000000001 8.63557177734375 1.9605000000000001 Q 8.64607177734375 1.9488750000000001 8.63107177734375 1.910625 L 8.49157177734375 1.537875 L 8.50357177734375 1.5281250000000002 L 8.37307177734375 1.8671250000000001 Q 8.36107177734375 1.8971250000000002 8.35882177734375 1.91775 Q 8.35657177734375 1.9383750000000002 8.36294677734375 1.9503750000000002 Q 8.36932177734375 1.962375 8.38469677734375 1.9676250000000002 Q 8.40007177734375 1.9728750000000002 8.42332177734375 1.9736250000000002 L 8.42332177734375 1.988625 Q 8.40232177734375 1.987125 8.37944677734375 1.98675 Q 8.35657177734375 1.986375 8.33707177734375 1.986375 Q 8.31832177734375 1.986375 8.30519677734375 1.98675 Q 8.29207177734375 1.987125 8.28082177734375 1.988625 L 8.28082177734375 1.9736250000000002 Q 8.29582177734375 1.969875 8.31157177734375 1.9560000000000002 Q 8.32732177734375 1.942125 8.34007177734375 1.9083750000000002 L 8.51632177734375 1.453875 Q 8.51932177734375 1.453875 8.52232177734375 1.453875 Q 8.52532177734375 1.453875 8.52832177734375 1.453875 M 8.61982177734375 1.7726250000000001 L 8.61982177734375 1.787625 L 8.39632177734375 1.787625 L 8.40382177734375 1.7726250000000001 L 8.61982177734375 1.7726250000000001 M 9.029318115234375 1.4471250000000002 Q 9.078818115234375 1.4471250000000002 9.110693115234374 1.46175 Q 9.142568115234376 1.476375 9.167318115234375 1.495875 Q 9.182318115234375 1.507125 9.190193115234376 1.4985 Q 9.198068115234374 1.489875 9.201068115234374 1.4576250000000002 L 9.218318115234375 1.4576250000000002 Q 9.216818115234375 1.4853750000000001 9.216068115234375 1.525125 Q 9.215318115234375 1.564875 9.215318115234375 1.630125 L 9.198068115234374 1.630125 Q 9.192818115234376 1.5978750000000002 9.188318115234376 1.57875 Q 9.183818115234375 1.559625 9.177443115234375 1.546125 Q 9.171068115234375 1.5326250000000001 9.160568115234375 1.519125 Q 9.137318115234375 1.488375 9.102068115234376 1.4745 Q 9.066818115234375 1.460625 9.027818115234375 1.460625 Q 8.991068115234375 1.460625 8.961443115234376 1.479 Q 8.931818115234375 1.4973750000000001 8.910443115234376 1.531875 Q 8.889068115234375 1.566375 8.877443115234374 1.6151250000000001 Q 8.865818115234376 1.663875 8.865818115234376 1.724625 Q 8.865818115234376 1.787625 8.878568115234375 1.836 Q 8.891318115234375 1.8843750000000001 8.914193115234376 1.917375 Q 8.937068115234375 1.9503750000000002 8.968193115234374 1.9672500000000002 Q 8.999318115234376 1.9841250000000001 9.035318115234375 1.9841250000000001 Q 9.069068115234375 1.9841250000000001 9.105818115234374 1.970625 Q 9.142568115234376 1.957125 9.163568115234375 1.9271250000000002 Q 9.180068115234375 1.905375 9.186443115234376 1.8798750000000002 Q 9.192818115234376 1.854375 9.198068115234374 1.8086250000000001 L 9.215318115234375 1.8086250000000001 Q 9.215318115234375 1.876875 9.216068115234375 1.9185 Q 9.216818115234375 1.9601250000000001 9.218318115234375 1.988625 L 9.201068115234374 1.988625 Q 9.198068115234374 1.956375 9.190943115234376 1.948125 Q 9.183818115234375 1.939875 9.167318115234375 1.9503750000000002 Q 9.139568115234376 1.969875 9.108443115234374 1.9845000000000002 Q 9.077318115234375 1.999125 9.028568115234375 1.999125 Q 8.957318115234376 1.999125 8.903693115234375 1.9668750000000002 Q 8.850068115234375 1.934625 8.820443115234376 1.8738750000000002 Q 8.790818115234375 1.813125 8.790818115234375 1.7276250000000002 Q 8.790818115234375 1.6436250000000001 8.821568115234374 1.580625 Q 8.852318115234375 1.517625 8.905943115234376 1.4823750000000002 Q 8.959568115234376 1.4471250000000002 9.029318115234375 1.4471250000000002 M 9.612059326171876 1.988625 L 9.612059326171876 1.9736250000000002 Q 9.637559326171875 1.9721250000000001 9.650684326171875 1.9676250000000002 Q 9.663809326171876 1.963125 9.668309326171874 1.9496250000000002 Q 9.672809326171874 1.936125 9.672809326171874 1.9091250000000002 L 9.672809326171874 1.537125 Q 9.672809326171874 1.5093750000000001 9.668309326171874 1.49625 Q 9.663809326171876 1.483125 9.650684326171875 1.47825 Q 9.637559326171875 1.473375 9.612059326171876 1.472625 L 9.612059326171876 1.4576250000000002 Q 9.629309326171875 1.4583750000000002 9.655559326171876 1.4591250000000002 Q 9.681809326171875 1.459875 9.707309326171876 1.459875 Q 9.736559326171875 1.459875 9.762059326171874 1.4591250000000002 Q 9.787559326171875 1.4583750000000002 9.803309326171876 1.4576250000000002 L 9.803309326171876 1.472625 Q 9.777809326171875 1.473375 9.764684326171874 1.47825 Q 9.751559326171876 1.483125 9.747059326171875 1.49625 Q 9.742559326171875 1.5093750000000001 9.742559326171875 1.537125 L 9.742559326171875 1.9091250000000002 Q 9.742559326171875 1.936125 9.747059326171875 1.9496250000000002 Q 9.751559326171876 1.963125 9.764684326171874 1.9676250000000002 Q 9.777809326171875 1.9721250000000001 9.803309326171876 1.9736250000000002 L 9.803309326171876 1.988625 Q 9.787559326171875 1.987125 9.762059326171874 1.98675 Q 9.736559326171875 1.986375 9.707309326171876 1.986375 Q 9.681809326171875 1.986375 9.655559326171876 1.98675 Q 9.629309326171875 1.987125 9.612059326171876 1.988625 M 9.298559326171874 1.988625 L 9.298559326171874 1.9736250000000002 Q 9.324059326171875 1.9721250000000001 9.337184326171876 1.9676250000000002 Q 9.350309326171875 1.963125 9.354809326171875 1.9496250000000002 Q 9.359309326171875 1.936125 9.359309326171875 1.9091250000000002 L 9.359309326171875 1.537125 Q 9.359309326171875 1.5093750000000001 9.354809326171875 1.49625 Q 9.350309326171875 1.483125 9.337184326171876 1.47825 Q 9.324059326171875 1.473375 9.298559326171874 1.472625 L 9.298559326171874 1.4576250000000002 Q 9.314309326171875 1.4583750000000002 9.339809326171874 1.4591250000000002 Q 9.365309326171875 1.459875 9.394559326171875 1.459875 Q 9.420809326171875 1.459875 9.446684326171875 1.4591250000000002 Q 9.472559326171876 1.4583750000000002 9.489809326171875 1.4576250000000002 L 9.489809326171875 1.472625 Q 9.464309326171875 1.473375 9.451184326171875 1.47825 Q 9.438059326171874 1.483125 9.433559326171874 1.49625 Q 9.429059326171876 1.5093750000000001 9.429059326171876 1.537125 L 9.429059326171876 1.9091250000000002 Q 9.429059326171876 1.936125 9.433559326171874 1.9496250000000002 Q 9.438059326171874 1.963125 9.451184326171875 1.9676250000000002 Q 9.464309326171875 1.9721250000000001 9.489809326171875 1.9736250000000002 L 9.489809326171875 1.988625 Q 9.472559326171876 1.987125 9.446684326171875 1.98675 Q 9.420809326171875 1.986375 9.394559326171875 1.986375 Q 9.365309326171875 1.986375 9.339809326171874 1.98675 Q 9.314309326171875 1.987125 9.298559326171874 1.988625 M 9.402809326171875 1.729125 L 9.402809326171875 1.7141250000000001 L 9.699059326171875 1.7141250000000001 L 9.699059326171875 1.729125 L 9.402809326171875 1.729125" fill="#4e888f" fill-rule="nonzero"></path></g></g><defs><clipPath id="SvgjsClipPath1002"><path d=" M -3.6170813601456855 -1.0913749956923677 h 3.2170813601456856 v 4.171374991384735 h -3.2170813601456856 Z"></path></clipPath><clipPath id="SvgjsClipPath100018f69a08-79c5-4174-8f5e-6097dedcff6c"><path d=" M -3.617081360145686 -1.0913749956923677 L -0.3999999999999999 -1.0913749956923677 L -0.3999999999999999 3.0799999956923676 L -3.617081360145686 3.0799999956923676 Z"></path></clipPath></defs></svg>